<svg xmlns="http://www.w3.org/2000/svg" viewBox="0 0 573 355" width="573" height="355">
	<style>
		tspan { white-space:pre }
		.shp0 { fill: #cdf6fe } 
	</style>
	<g id="bird">
		<path id="Layer" fill-rule="evenodd" class="shp0" d="M364.25 149.22C414.89 116.34 478.69 92.23 572.98 92.23C572.98 92.23 571.42 95.34 566.75 98.46C449.27 97.08 373.81 154.28 304.29 214.93C299.77 215.96 295.38 217.1 291.16 218.35L270.92 232.36C276.38 230.43 283.13 228.52 290.84 226.75C208.97 299.08 132.2 371.22 0 350.69L0 327.34C129.32 343.68 194.12 296.14 256.38 239.62C256.06 241.33 255.71 243.06 255.35 244.82L269.36 229.25C269.41 228.69 269.46 228.14 269.5 227.58C292.45 206.38 315.64 184.48 342.19 164.63C341.29 165.93 340.37 167.22 339.43 168.52L355 162.29C358.37 159.09 361.49 154.62 364.25 149.22ZM328.53 28.39C326.97 28.39 325.41 26.84 323.86 25.28C385.92 10.11 385.68 107.34 364.25 149.22C356.62 154.17 349.28 159.33 342.19 164.63C392.94 91.22 365.25 19.21 328.53 28.39ZM221.09 117.14C256.63 123.32 275.3 157.09 269.5 227.58C265.13 231.63 260.76 235.65 256.38 239.62C274.42 145.89 242.36 123.26 213.31 117.14L221.09 117.14ZM493.57 293.08C492.01 303.98 478 324.22 462.43 319.55L465.54 322.67C478 327.34 495.13 308.65 496.68 294.64C507 212.09 384.73 196.53 304.29 214.93C299.79 218.86 295.3 222.81 290.84 226.75C357.91 211.35 497.76 206.5 493.57 293.08Z" />
		<path id="Layer" fill-rule="evenodd" class="shp0" d="M442.19 124.93C442.3 124.89 442.43 124.86 442.58 124.84C442.45 124.87 442.32 124.9 442.19 124.93ZM442.58 124.84C515.33 109.6 504.53 176.34 537.16 191.88C521.59 185.65 426.62 182.54 417.28 134.27C420.39 132.71 437.52 126.48 442.19 128.04C476.44 140.5 488.9 162.29 488.9 160.74C482.82 139.47 448.58 124.13 442.58 124.84ZM379.91 103.13C401.71 96.9 412.6 62.65 418.83 42.41C412.6 57.98 398.59 87.56 387.69 90.67C376.79 48.63 409.49 28.39 420.39 0.37C440.63 45.52 439.07 90.67 379.91 103.13ZM138.57 156.07C149.47 201.22 230.44 246.37 169.71 303.98C144.8 297.75 146.36 249.49 141.69 226.13C143.24 244.82 140.13 294.64 157.26 305.54C73.18 283.74 126.12 212.12 138.57 156.07ZM207.08 308.65C233.55 297.75 267.8 307.1 291.16 308.65C258.46 300.87 238.22 296.2 208.64 300.87C247.56 252.6 322.3 302.42 358.11 291.53C312.96 374.05 249.12 352.25 207.08 308.65ZM185.28 216.79C189.95 190.32 225.76 174.75 228.88 151.4C258.46 199.66 255.35 241.7 208.64 261.94C216.42 240.14 227.32 221.46 225.76 204.33C222.65 226.13 207.08 247.93 196.18 275.96C203.97 247.93 200.85 233.92 185.28 216.79ZM325.41 134.27C311.4 149.84 302.06 177.86 272.47 176.31C270.92 176.31 280.26 154.51 297.39 149.84C281.82 151.4 275.59 159.18 269.36 170.08C258.46 142.05 303.61 134.27 325.41 134.27ZM432.18 272.62C432.4 272.69 432.62 272.77 432.85 272.84C432.62 272.77 432.4 272.7 432.18 272.62ZM359.67 223.02C381.46 223.02 386.14 235.47 398.59 246.37C392.36 229.25 378.35 224.57 373.68 221.46C429.11 229.16 412.98 265.78 432.18 272.62C395.13 260.4 365.86 261.71 359.67 223.02Z" />
		<path id="Layer" class="shp0" d="M294.27 62.65C292.72 65.76 289.6 68.87 286.49 73.55C286.49 81.33 284.93 86 281.82 92.23C272.47 109.36 249.12 121.81 228.88 123.37C221.09 123.37 203.97 121.81 197.74 117.14C183.73 115.58 147.91 110.91 144.8 109.36C138.57 109.36 137.02 109.36 107.43 112.47C115.22 103.13 127.67 106.24 144.8 101.57C121.45 100.01 129.23 96.9 147.91 92.23C199.3 78.22 199.3 51.75 241.33 45.52C252.23 25.28 280.26 20.61 294.27 48.63C300.5 48.63 305.17 53.3 308.29 57.98C306.73 57.98 300.5 61.09 294.27 62.65L294.27 62.65Z" />
	</g>
</svg>